<svg id="Layer_1" data-name="Layer 1" xmlns="http://www.w3.org/2000/svg" viewBox="0 0 2112.8 2496.97"><path d="M348.15,811.84q-64.54,0-109.54,45t-45,108v645.25q0,64.61,45,109.56t109.54,45q64.49,0,108.81-45t44.26-109.56V964.88q0-63-45-108T348.15,811.84ZM1590.64,232.6,1697.18,36.06c7-13,4.51-23-7.48-30-13-6-23-3-30,9l-108,198.11q-142.59-63-301.63-63.08T948.41,213.14L840.37,15c-7-12-17-15-30-9-12,7.05-14.5,17-7.48,30L909.43,232.6Q747.37,315.25,651.32,463q-96,147.88-96,323.39h1388q0-175.56-96-323.39T1590.64,232.6Zm-616,285.88q-17.28,17.31-41.28,17.29t-40.51-17.29a59.83,59.83,0,0,1,0-82.51q16.5-17.25,40.51-17.24T974.66,436c11.49,11.55,17.27,25.26,17.27,41.25S986.13,507,974.66,518.48Zm632.47,0q-16.53,17.31-40.5,17.29t-41.29-17.29c-11.52-11.5-17.26-25.21-17.26-41.26s5.74-29.73,17.26-41.25,25.26-17.24,41.29-17.24,29.48,5.74,40.5,17.24a59.83,59.83,0,0,1,0,82.51ZM561.24,1839.72q0,69.09,48,117t117,48H837.32l1.52,340.67q0,64.53,45,109.56t108,45q64.5,0,109.53-45t45-109.56V2004.79h207.07v340.64q0,64.53,45,109.56t109.53,45q64.5,0,109.53-45t45-109.56V2004.79h112.55q67.52,0,115.55-48t48-117V840.32H561.24ZM2151.86,811.84q-63,0-108,44.26t-45,108.78v645.25q0,64.61,45,109.56t108,45q64.48,0,109.53-45t45-109.56V964.88q0-64.46-45-108.78t-109.53-44.26Z" transform="translate(-193.6 -3.03)"/></svg>