<svg xmlns="http://www.w3.org/2000/svg" viewBox="0 0 2112.8 2496.97"><path d="M154.55 808.81q-64.54 0-109.54 45-45 45-45 108v645.25q0 64.61 45 109.56 45 44.95 109.54 45 64.49 0 108.81-45 44.32-45 44.26-109.56V961.85q0-63-45-108-45-45-108.07-45.04zm1242.49-579.24l106.54-196.54c7-13 4.51-23-7.48-30-13-6-23-3-30 9l-108 198.11q-142.59-63-301.63-63.08-159.04-.08-301.66 63.05L646.77 11.97c-7-12-17-15-30-9-12 7.05-14.5 17-7.48 30l106.54 196.6q-162.06 82.65-258.11 230.4-96 147.88-96 323.39h1388q0-175.56-96-323.39-96-147.83-256.68-230.4zm-616 285.88q-17.28 17.31-41.28 17.29-24-.02-40.51-17.29c-21.997-23.105-21.997-59.405 0-82.51q16.5-17.25 40.51-17.24 24.01.01 41.3 17.27c11.49 11.55 17.27 25.26 17.27 41.25s-5.8 29.75-17.27 41.23zm632.47 0q-16.53 17.31-40.5 17.29-23.97-.02-41.29-17.29c-11.52-11.5-17.26-25.21-17.26-41.26s5.74-29.73 17.26-41.25 25.26-17.24 41.29-17.24 29.48 5.74 40.5 17.24c21.997 23.105 21.997 59.405 0 82.51zM367.64 1836.69q0 69.09 48 117 48 47.91 117 48h111.08l1.52 340.67q0 64.53 45 109.56 45 45.03 108 45 64.5 0 109.53-45 45.03-45 45-109.56v-340.6h207.07v340.64q0 64.53 45 109.56 45 45.03 109.53 45 64.5 0 109.53-45 45.03-45 45-109.56v-340.64h112.55q67.52 0 115.55-48 48.03-48 48-117V837.29H367.64zM1958.26 808.81q-63 0-108 44.26-45 44.26-45 108.78v645.25q0 64.61 45 109.56 45 44.95 108 45 64.48 0 109.53-45 45.05-45 45-109.56V961.85q0-64.46-45-108.78-45-44.32-109.53-44.26z"/></svg>