<svg xmlns="http://www.w3.org/2000/svg" id="Layer_1" viewBox="0 0 1920 1080"><defs><style>.cls-1{fill:#ccc;opacity:.2}</style></defs><path d="M0 0h1920v1080H0z" style="fill:#fcfcfc"/><path d="M0 265.16s2.57-2.93 21.61 15.93l364.84 361.57 364.84 361.57c30.71 30.43 28.38 75.74 28.38 75.74H0V265.16Z" class="cls-1"/><path d="M0 0v624l134.39 133.07c19.03 18.86 43.98 28.3 68.93 28.3s49.9-9.43 68.93-28.3L637.09 395.5l364.84-361.58C1028.29 11.66 1024 0 1024 0H0ZM1920 1080h-377l-145.71-146.1c-18.94-19.12-28.42-44.17-28.42-69.22 0-25.05 9.47-50.11 28.42-69.22L1920 268v812Z" class="cls-1"/></svg>