<svg xmlns="http://www.w3.org/2000/svg" viewBox="0 0 254.8 250.9"><path d="M251.9 4.3c13.5 13.5-23.9 72.8-30.3 79.2s-22.4.5-35.9-13-19.3-29.6-13-35.9 65.7-43.8 79.2-30.3M62.5 18.6C41.9 6.9 12.5-6.2 3.2 3.2s4 39.5 15.9 60.1C29.6 45 44.5 29.6 62.5 18.6m168.8 60.2c1.9 6.4 1.6 11.8-1.5 14.8-7.2 7.2-26.6-.5-44.1-17.1-1.2-1.1-2.4-2.2-3.6-3.4-5.8-5.6-10.6-12.2-14.4-19.3-6.1-11-7.7-20.7-3-25.4 2.5-2.5 6.6-3.2 11.5-2.3 3.2-2 7-4.3 11.2-6.6-60.1-31.3-134.2-8-165.5 52s-8 134.2 52 165.5 134.2 8 165.5-52c19.2-36.7 18.5-80.7-1.8-116.8l-6.3 10.6"/></svg>