<?xml version="1.0" encoding="UTF-8" standalone="no"?>
<!-- Created with Inkscape (http://www.inkscape.org/) -->

<svg
   xmlns:dc="http://purl.org/dc/elements/1.1/"
   xmlns:cc="http://creativecommons.org/ns#"
   xmlns:rdf="http://www.w3.org/1999/02/22-rdf-syntax-ns#"
   xmlns:svg="http://www.w3.org/2000/svg"
   xmlns="http://www.w3.org/2000/svg"
   xmlns:sodipodi="http://sodipodi.sourceforge.net/DTD/sodipodi-0.dtd"
   xmlns:inkscape="http://www.inkscape.org/namespaces/inkscape"
   version="1.1"
   id="svg2"
   xml:space="preserve"
   width="546"
   height="140"
   viewBox="0 0 545.99999 140"
   sodipodi:docname="grammm_logo.svg"
   inkscape:export-xdpi="179.57756"
   inkscape:export-ydpi="179.57756"><metadata
     id="metadata8"><rdf:RDF><cc:Work
         rdf:about=""><dc:format>image/svg+xml</dc:format><dc:type
           rdf:resource="http://purl.org/dc/dcmitype/StillImage" /><dc:title /></cc:Work></rdf:RDF></metadata><defs
     id="defs6"><clipPath
       clipPathUnits="userSpaceOnUse"
       id="clipPath18"><path
         d="M 0,0 H 841.89 V 595.276 H 0 Z"
         id="path16"
         inkscape:connector-curvature="0" /></clipPath><radialGradient
       fx="0"
       fy="0"
       cx="0"
       cy="0"
       r="1"
       gradientUnits="userSpaceOnUse"
       gradientTransform="matrix(364.54291,0,0,-364.54291,420.94501,297.638)"
       spreadMethod="pad"
       id="radialGradient26"><stop
         style="stop-opacity:1;stop-color:#ffffff"
         offset="0"
         id="stop22" /><stop
         style="stop-opacity:1;stop-color:#d9d8d8"
         offset="1"
         id="stop24" /></radialGradient><clipPath
       clipPathUnits="userSpaceOnUse"
       id="clipPath36"><path
         d="M 0,595.276 H 841.89 V 0 H 0 Z"
         id="path34"
         inkscape:connector-curvature="0" /></clipPath></defs><sodipodi:namedview
     pagecolor="#ffffff"
     bordercolor="#666666"
     borderopacity="1"
     objecttolerance="10"
     gridtolerance="10"
     guidetolerance="10"
     inkscape:pageopacity="0"
     inkscape:pageshadow="2"
     inkscape:window-width="640"
     inkscape:window-height="480"
     id="namedview4"
     showgrid="false"
     showguides="false"
     inkscape:snap-bbox="true"
     inkscape:zoom="1.8947268"
     inkscape:cx="276.72494"
     inkscape:cy="11.269518"
     inkscape:current-layer="g10"><inkscape:grid
       type="xygrid"
       id="grid996" /></sodipodi:namedview><g
     id="g10"
     inkscape:groupmode="layer"
     inkscape:label="grammm_type"
     transform="matrix(1.3333333,0,0,-1.3333333,0,139.99998)"><path
       inkscape:connector-curvature="0"
       id="path92"
       style="fill:#3f3f3f;fill-opacity:1;fill-rule:nonzero;stroke:none"
       d="m 100.6255,86.23688 -23.882,-10.792 9.159,-15.197 14.723,25.5 z" /><path
       inkscape:connector-curvature="0"
       id="path72"
       style="fill:#3f3f3f;fill-opacity:1;fill-rule:nonzero;stroke:none"
       d="m 38.2248,72.67888 1.609,17.698 h -24.107 z" /><path
       inkscape:connector-curvature="0"
       id="path76"
       style="fill:#2dcaff;fill-opacity:1;fill-rule:nonzero;stroke:none"
       d="m 38.7353,51.22898 14.062,-1.616 -11.083,12.468 z" /><path
       inkscape:connector-curvature="0"
       id="path80"
       style="fill:#2dcaff;fill-opacity:1;fill-rule:nonzero;stroke:none"
       d="M 37.394,66.53308 15,84.14808 c 2.663,-4.612 9.243,-16.008 18.455,-31.965 z" /><path
       inkscape:connector-curvature="0"
       id="path84"
       style="fill:#2dcaff;fill-opacity:1;fill-rule:nonzero;stroke:none"
       d="m 43.4527,71.15668 26.308,7.379 -2.55,11.841 h -22.011 z" /><path
       inkscape:connector-curvature="0"
       id="path88"
       style="fill:#2dcaff;fill-opacity:1;fill-rule:nonzero;stroke:none"
       d="m 68.6122,72.66258 -23.335,-6.545 14.871,-16.731 z" /><path
       inkscape:connector-curvature="0"
       id="path96"
       style="fill:#2dcaff;fill-opacity:1;fill-rule:nonzero;stroke:none"
       d="m 74.8177,80.43908 21.99,9.937 h -24.13 z" /><path
       inkscape:connector-curvature="0"
       id="path100"
       style="fill:#2dcaff;fill-opacity:1;fill-rule:nonzero;stroke:none"
       d="m 66.1351,50.21258 15.784,3.135 0.931,1.612 -9.349,15.511 z" /><path
       inkscape:connector-curvature="0"
       id="path104"
       style="fill:#3f3f3f;fill-opacity:1;fill-rule:nonzero;stroke:none"
       d="m 56.6254,43.79298 -19.629,2.256 c 8.847,-15.322 16.132,-27.94 17.926,-31.049 z" /><path
       inkscape:connector-curvature="0"
       id="path108"
       style="fill:#2dcaff;fill-opacity:1;fill-rule:nonzero;stroke:none"
       d="m 61.8826,42.15908 -1.549,-26.199 9.916,17.176 z" /><path
       inkscape:connector-curvature="0"
       id="path112"
       style="fill:#2dcaff;fill-opacity:1;fill-rule:nonzero;stroke:none"
       d="m 66.6593,44.86778 6.387,-6.888 5.319,9.213 z" /><path
       inkscape:connector-curvature="0"
       id="path44"
       style="fill:#3f3f3f;fill-opacity:1;fill-rule:nonzero;stroke:none"
       d="m 201.7925,68.13911 c -6.629,0 -12.022,-5.393 -12.022,-12.022 0,-6.629 5.393,-12.022 12.022,-12.022 6.629,0 12.022,5.393 12.022,12.022 0,6.629 -5.393,12.022 -12.022,12.022 m 0,-33.248 c -11.704,0 -21.226,9.521 -21.226,21.226 0,11.704 9.522,21.226 21.226,21.226 11.704,0 21.226,-9.522 21.226,-21.226 0,-11.705 -9.522,-21.226 -21.226,-21.226" /><path
       inkscape:connector-curvature="0"
       id="path48"
       style="fill:#3f3f3f;fill-opacity:1;fill-rule:nonzero;stroke:none"
       d="m 158.7253,34.89061 c -2.542,0 -4.602,2.06 -4.602,4.602 v 16.624 c 0,11.704 9.522,21.227 21.226,21.227 2.542,0 4.602,-2.06 4.602,-4.602 0,-2.542 -2.06,-4.603 -4.602,-4.603 -6.629,0 -12.022,-5.393 -12.022,-12.022 v -16.624 c 0,-2.542 -2.06,-4.602 -4.602,-4.602" /><path
       inkscape:connector-curvature="0"
       id="path40"
       style="fill:#3f3f3f;fill-opacity:1;fill-rule:nonzero;stroke:none"
       d="m 127.25321,68.13911 c -6.629,0 -12.022,-5.393 -12.022,-12.022 0,-6.629 5.393,-12.022 12.022,-12.022 6.629,0 12.022,5.393 12.022,12.022 0,6.629 -5.393,12.022 -12.022,12.022 m 0,-33.248 c -11.704,0 -21.226,9.521 -21.226,21.226 0,11.704 9.522,21.226 21.226,21.226 11.704,0 21.226,-9.522 21.226,-21.226 0,-11.705 -9.522,-21.226 -21.226,-21.226" /><path
       sodipodi:nodetypes="csssssssssc"
       inkscape:connector-curvature="0"
       id="path52"
       style="fill:#3f3f3f;fill-opacity:1;fill-rule:nonzero;stroke:none"
       d="m 127.2397,15.05781 -8.41767,-0.05772 c -2.54194,-0.01743 -4.602,2.06 -4.602,4.602 0,2.542 2.06006,4.584569 4.602,4.602 l 8.41767,0.05772 c 6.62884,0.04546 12.0327,5.393009 12.022,12.023 l -0.0589,36.467518 c -0.004,2.541997 2.061,4.602 4.602,4.602 2.542,0 4.5979,-2.060003 4.602,-4.602 l 0.0589,-36.467518 c 0.0189,-11.704985 -9.522,-21.227 -21.226,-21.227" /><path
       inkscape:connector-curvature="0"
       id="path56"
       style="fill:#3f3f3f;fill-opacity:1;fill-rule:nonzero;stroke:none"
       d="m 218.9165,34.89061 c -2.542,0 -4.602,2.06 -4.602,4.602 v 33.249 c 0,2.542 2.06,4.602 4.602,4.602 2.542,0 4.602,-2.06 4.602,-4.602 v -33.249 c 0,-2.542 -2.06,-4.602 -4.602,-4.602" /><path
       inkscape:connector-curvature="0"
       id="path60"
       style="fill:#3f3f3f;fill-opacity:1;fill-rule:nonzero;stroke:none"
       d="m 265.4402,77.45251 v 0 c -4.14,0 -7.888,-1.671 -10.611,-4.374 -2.722,2.703 -6.471,4.374 -10.61,4.374 v 0 c -8.319,0 -15.063,-6.744 -15.063,-15.062 v -22.624 c 0,-2.504 2.029,-4.533 4.533,-4.533 2.503,0 4.532,2.029 4.532,4.533 v 22.538 c 0,3.195 2.41,5.984 5.598,6.19 3.493,0.227 6.397,-2.54 6.397,-5.984 v -22.744 c 0,-2.504 2.029,-4.533 4.533,-4.533 h 0.161 c 2.503,0 4.532,2.029 4.532,4.533 v 22.744 c 0,3.312 2.686,5.997 5.998,5.997 v 0 c 3.312,0 5.998,-2.685 5.998,-5.997 v -22.744 c 0,-2.504 2.029,-4.533 4.532,-4.533 2.503,0 4.532,2.029 4.532,4.533 v 22.624 c 0,8.318 -6.743,15.062 -15.062,15.062" /><path
       inkscape:connector-curvature="0"
       id="path64"
       style="fill:#3f3f3f;fill-opacity:1;fill-rule:nonzero;stroke:none"
       d="m 322.3043,77.45251 v 0 c -4.14,0 -7.888,-1.671 -10.611,-4.374 -2.722,2.703 -6.471,4.374 -10.61,4.374 v 0 c -8.319,0 -15.063,-6.744 -15.063,-15.062 v -22.624 c 0,-2.504 2.029,-4.533 4.533,-4.533 2.503,0 4.532,2.029 4.532,4.533 v 22.538 c 0,3.195 2.41,5.984 5.598,6.19 3.493,0.227 6.397,-2.54 6.397,-5.984 v -22.744 c 0,-2.504 2.029,-4.533 4.533,-4.533 h 0.161 c 2.503,0 4.532,2.029 4.532,4.533 v 22.744 c 0,3.312 2.686,5.997 5.998,5.997 v 0 c 3.312,0 5.998,-2.685 5.998,-5.997 v -22.744 c 0,-2.504 2.029,-4.533 4.532,-4.533 2.503,0 4.532,2.029 4.532,4.533 v 22.624 c 0,8.318 -6.743,15.062 -15.062,15.062" /><path
       inkscape:connector-curvature="0"
       id="path68"
       style="fill:#3f3f3f;fill-opacity:1;fill-rule:nonzero;stroke:none"
       d="m 379.1684,77.45251 v 0 c -4.14,0 -7.888,-1.671 -10.611,-4.374 -2.722,2.703 -6.471,4.374 -10.61,4.374 v 0 c -8.319,0 -15.063,-6.744 -15.063,-15.062 v -22.624 c 0,-2.504 2.029,-4.533 4.533,-4.533 2.503,0 4.532,2.029 4.532,4.533 v 22.538 c 0,3.195 2.41,5.984 5.598,6.19 3.493,0.227 6.397,-2.54 6.397,-5.984 v -22.744 c 0,-2.504 2.029,-4.533 4.533,-4.533 h 0.161 c 2.503,0 4.532,2.029 4.532,4.533 v 22.744 c 0,3.312 2.685,5.997 5.998,5.997 v 0 c 3.312,0 5.998,-2.685 5.998,-5.997 v -22.744 c 0,-2.504 2.029,-4.533 4.532,-4.533 v 0 c 2.503,0 4.532,2.029 4.532,4.533 v 22.624 c 0,8.318 -6.743,15.062 -15.062,15.062" /></g></svg>