<svg id="svg2" xmlns="http://www.w3.org/2000/svg" viewBox="0 0 384.27 83.14"><defs><style>.cls-1{fill:#dfdfdf;}</style></defs><g id="g10"><path id="path44" class="cls-1" d="M135.55,54a16,16,0,1,0,16,16,16,16,0,0,0-16-16m0,44.33A28.3,28.3,0,1,1,163.85,70a28.33,28.33,0,0,1-28.3,28.3" transform="translate(-7.86 -41.7)"/><path id="path48" class="cls-1" d="M78.13,98.3A6.13,6.13,0,0,1,72,92.17V70a28.34,28.34,0,0,1,28.3-28.3,6.14,6.14,0,1,1,0,12.27,16.05,16.05,0,0,0-16,16V92.17a6.12,6.12,0,0,1-6.13,6.13" transform="translate(-7.86 -41.7)"/><g id="g4575"><path id="path40" class="cls-1" d="M36.17,54a16,16,0,1,0,16,16,16.05,16.05,0,0,0-16-16m0,44.34A28.31,28.31,0,1,1,64.47,70a28.34,28.34,0,0,1-28.3,28.31" transform="translate(-7.86 -41.7)"/><path id="path52" class="cls-1" d="M36.15,124.76l-11.23.08a6.14,6.14,0,0,1,0-12.28l11.23-.07a16.08,16.08,0,0,0,16-16L52.1,47.83a6.14,6.14,0,0,1,12.27,0l.08,48.63a28.33,28.33,0,0,1-28.3,28.3" transform="translate(-7.86 -41.7)"/></g><path id="path56" class="cls-1" d="M158.38,98.3a6.12,6.12,0,0,1-6.13-6.13V47.83a6.14,6.14,0,0,1,12.27,0V92.17a6.13,6.13,0,0,1-6.14,6.13" transform="translate(-7.86 -41.7)"/><path id="path60" class="cls-1" d="M220.42,41.85h0a20,20,0,0,0-14.15,5.84,20,20,0,0,0-14.15-5.84h0A20.09,20.09,0,0,0,172,61.94V92.1a6,6,0,1,0,12.08,0v-30a8.18,8.18,0,0,1,7.47-8.25,8,8,0,0,1,8.53,8V92.1a6,6,0,0,0,6,6.05h.22a6,6,0,0,0,6-6.05V61.78a8,8,0,0,1,8-8h0a8,8,0,0,1,8,8V92.1a6,6,0,1,0,12.09,0V61.94a20.09,20.09,0,0,0-20.08-20.09" transform="translate(-7.86 -41.7)"/><path id="path64" class="cls-1" d="M296.23,41.85h0a20,20,0,0,0-14.14,5.84,20,20,0,0,0-14.15-5.84h0a20.09,20.09,0,0,0-20.08,20.09V92.1a6,6,0,1,0,12.08,0v-30a8.18,8.18,0,0,1,7.47-8.25,8,8,0,0,1,8.53,8V92.1a6,6,0,0,0,6,6.05h.21a6.05,6.05,0,0,0,6.05-6.05V61.78a8,8,0,0,1,8-8h0a8,8,0,0,1,8,8V92.1a6,6,0,1,0,12.09,0V61.94a20.09,20.09,0,0,0-20.09-20.09" transform="translate(-7.86 -41.7)"/><path id="path68" class="cls-1" d="M372.05,41.85h0a20,20,0,0,0-14.15,5.84,20,20,0,0,0-14.14-5.84h0a20.1,20.1,0,0,0-20.09,20.09V92.1a6,6,0,1,0,12.09,0v-30a8.17,8.17,0,0,1,7.46-8.25,8,8,0,0,1,8.53,8V92.1a6.05,6.05,0,0,0,6.05,6.05H358a6.05,6.05,0,0,0,6.05-6.05V61.78a8,8,0,0,1,8-8h0a8,8,0,0,1,8,8V92.1a6,6,0,0,0,6,6.05h0a6.05,6.05,0,0,0,6.05-6.05V61.94a20.1,20.1,0,0,0-20.09-20.09" transform="translate(-7.86 -41.7)"/></g></svg>