<svg xmlns="http://www.w3.org/2000/svg" viewBox="0 0 101.08 120"><path d="M98.96 93.52a65 65 0 0 1-6.45 11.6q-5.09 7.25-8.31 10a16.15 16.15 0 0 1-10.66 4.74 26.7 26.7 0 0 1-9.87-2.35 28.33 28.33 0 0 0-10.62-2.35 29.27 29.27 0 0 0-10.92 2.35 29.31 29.31 0 0 1-9.46 2.49q-5.48.24-10.92-4.83a62 62 0 0 1-8.7-10.4A72.13 72.13 0 0 1 3.86 86.5 66.89 66.89 0 0 1 0 64.74q0-12.06 5.22-20.79A30.48 30.48 0 0 1 16.15 32.9a29.22 29.22 0 0 1 14.77-4.17q4.35 0 11.43 2.66c4.72 1.76 7.74 2.66 9.07 2.66 1 0 4.35-1 10.05-3.14q8.07-2.91 13.66-2.42 15.15 1.22 22.73 12-13.54 8.2-13.41 23a25.33 25.33 0 0 0 8.32 19.09 27.31 27.31 0 0 0 8.31 5.42c-.67 1.94-1.37 3.79-2.12 5.57zM75.81 2.4c0 6-2.2 11.61-6.57 16.79-5.27 6.17-11.65 9.73-18.57 9.17a18.37 18.37 0 0 1-.13-2.28c0-5.76 2.51-11.92 7-17a26.6 26.6 0 0 1 8.48-6.37A25.29 25.29 0 0 1 75.68 0a21.44 21.44 0 0 1 .13 2.4z"/></svg>