<svg xmlns="http://www.w3.org/2000/svg" viewBox="0 0 24 24" fill="black" width="48" height="48"><path d="M15.9 5c-.17 0-.32.09-.41.23l-.07.15-5.18 11.65a1.97 1.97 0 0 0-.26.96A2.01 2.01 0 0 0 11.99 20c.96 0 1.77-.68 1.96-1.59l.01-.03L16.4 5.5c0-.28-.22-.5-.5-.5zM1 9l2 2a12.66 12.66 0 0 1 10.53-3.62l1.19-2.68C9.89 3.84 4.74 5.27 1 9zm20 2l2-2c-1.64-1.64-3.55-2.82-5.59-3.57l-.53 2.82c1.5.62 2.9 1.53 4.12 2.75zm-4 4l2-2a9.88 9.88 0 0 0-2.66-1.89l-.55 2.92A7.25 7.25 0 0 1 17 15zM5 13l2 2a7.1 7.1 0 0 1 4.03-2l1.28-2.88c-2.63-.08-5.3.87-7.31 2.88z"/></svg>