<svg xmlns="http://www.w3.org/2000/svg" viewBox="0 0 122.88 95.57"><path d="M5.73 0h111.43c1.58 0 3.01.64 4.05 1.68s1.68 2.47 1.68 4.05V77c0 1.58-.64 3.01-1.68 4.05s-2.47 1.68-4.05 1.68h-2.38l-5.01-9.66c.28-.85.47-1.69.6-2.52l.08-.53c.56-.63 1.11-1.36 1.63-2.21l.27-.46c.88-1.58 1.46-3.24 1.74-5.02l.05-.34 2.52-2.52V23.25L99.63 6.23H23.25L6.23 23.25v36.22l17.02 17.02H60.5l-3.08 5.95-.15.28H5.73c-1.58 0-3.01-.64-4.05-1.68C.64 80.01 0 78.58 0 77V5.73c0-1.58.64-3.01 1.68-4.05S4.15 0 5.73 0h0zm80.29 41.37c.54-.03 1.02.06 1.47.21.44.15.84.38 1.26.63.42.27.86.63 1.32 1.04l.03.03c.58.5 1.23 1.05 1.95 1.46.59.33 1.46.36 2.38.41 1.73.06 3.61.14 4.85 1.98h0c1.07 1.61 1.16 2.82 1.23 4.04l.02.13c.03.59.1 1.14.31 1.74.21.62.57 1.28 1.17 2.09h0c1.13 1.49 1.8 2.75 2.06 3.91.27 1.22.09 2.31-.53 3.43l-.02.03c-.46.8-1.14 1.38-1.73 1.88-.44.38-.83.71-.95.98-.32.74-.33 1.41-.33 2.12-.02.96-.03 1.95-.66 3.22l-.01.03c-.41.78-.92 1.44-1.53 1.97-.63.54-1.37.95-2.21 1.22-.75.24-1.44.2-2.12.15-.56-.04-1.07-.07-1.46.09l-.05.01c-.81.35-1.55.95-2.25 1.5-.78.63-1.52 1.22-2.36 1.49h0a5.95 5.95 0 0 1-1.85.29 5.95 5.95 0 0 1-1.85-.29l-.03-.01c-.83-.26-1.56-.86-2.34-1.49-.71-.57-1.46-1.17-2.29-1.52-.39-.17-.9-.12-1.46-.09-.66.04-1.37.09-2.13-.15l-.04-.02c-.83-.27-1.55-.67-2.18-1.2-.62-.54-1.14-1.2-1.53-2-.63-1.26-.64-2.25-.66-3.21-.02-.71-.02-1.38-.33-2.12l-.01-.01c-.13-.29-.53-.62-.96-.99-.6-.51-1.28-1.08-1.73-1.88l-.03-.05c-.62-1.1-.78-2.18-.51-3.39.26-1.16.95-2.42 2.07-3.91.62-.8.96-1.47 1.17-2.09.21-.6.29-1.17.32-1.76l.02-.12c.07-1.22.17-2.46 1.23-4.04l.03-.03c1.23-1.82 3.1-1.88 4.81-1.94.92-.03 1.8-.08 2.39-.41l.02-.02c.71-.41 1.35-.95 1.94-1.46.47-.41.9-.78 1.35-1.05a5.71 5.71 0 0 1 1.26-.63 4.77 4.77 0 0 1 1.48-.2h0 0zm18.33 49.92l-4.52-.81-2.27 4.07c-.01.03-.03.06-.06.08-.95 1.17-1.82 1.14-2.57.53-.81-.66-1.35-2.07-1.7-3l-.13-.36-4.79-9.05c-.15-.29-.04-.63.24-.77.03-.02.06-.03.08-.03.5-.17 1.05-.51 1.65-.96.63-.47 1.29-1.05 1.97-1.65.12-.11.27-.17.44-.15 1.29.03 2.55-.08 3.68-.45 1.11-.38 2.13-1.04 3-2.15.2-.26.56-.3.8-.11.06.06.12.12.15.2l5.54 10.7.48 1.04c.02.03.03.06.03.09.22.8.27 1.49 0 2.01-.3.59-.89.89-1.88.81l-.14-.04h0 0zm-32.11-.81l-4.52.81c-.04.01-.09.01-.15.01-.99.08-1.58-.23-1.88-.81-.27-.51-.23-1.2 0-2.01l.03-.09.48-1.04 5.54-10.7c.03-.08.09-.14.15-.2a.56.56 0 0 1 .8.1c.86 1.1 1.88 1.76 3.01 2.15 1.14.39 2.39.48 3.68.45.15-.01.3.03.44.15l1.97 1.65c.6.45 1.16.8 1.65.96l.07.03a.56.56 0 0 1 .24.77l-4.79 9.04-.14.35c-.34.93-.88 2.34-1.7 3-.75.6-1.61.65-2.57-.53-.02-.03-.04-.04-.06-.07l-2.25-4.02h0 0zM93.02 52.4c-1.79-1.79-4.25-2.9-6.99-2.9s-5.2 1.11-6.99 2.9-2.9 4.25-2.9 6.99c0 2.73 1.11 5.2 2.9 6.99s4.25 2.9 6.99 2.9c2.73 0 5.2-1.11 6.99-2.9s2.9-4.25 2.9-6.99c-.01-2.72-1.11-5.2-2.9-6.99h0 0zm-62-1.24c-.4 0-.76-.25-1.02-.64-.26-.4-.43-.95-.43-1.56s.16-1.16.43-1.56c.26-.4.63-.64 1.02-.64h17.1c.4 0 .76.25 1.02.64.26.4.42.95.42 1.56s-.16 1.17-.42 1.56c-.26.4-.63.64-1.02.64h-17.1 0 0zm-1.08 13.68c4.22-5.54 7.83-3.02 12.87.5.25.18.51.35.76.53.72.5 1.48.41 2.24.04.82-.41 1.65-1.14 2.47-1.87l.02-.01c.74-.65 1.46-1.29 2.24-1.78.13-.08.31-.04.39.09l1.15 1.81c.08.13.04.31-.09.39-.6.38-1.25.96-1.91 1.54l-.02.01c-1.15 1.02-2.33 2.05-3.63 2.59-1.34.55-2.79.55-4.4-.57l-.77-.54c-1.94-1.36-3.6-2.51-5.1-2.88-1.43-.34-2.74.07-4.06 1.8-.1.13-.28.15-.4.05L30 65.25a.29.29 0 0 1-.06-.41h0 0zm1.08-42.01c-.4 0-.77-.25-1.03-.64s-.43-.95-.43-1.55c0-.61.16-1.15.43-1.55.26-.4.63-.64 1.03-.64h41.35c.4 0 .77.25 1.03.64.26.4.42.95.42 1.55 0 .61-.16 1.15-.42 1.55s-.63.65-1.03.65l-41.35-.01h0 0zm0 14.89c-.4 0-.76-.25-1.02-.65h0c-.26-.4-.43-.95-.43-1.55 0-.61.16-1.15.43-1.56.26-.4.63-.64 1.03-.64h33.05c.4 0 .76.25 1.02.64h0c.26.4.43.95.43 1.55 0 .61-.16 1.15-.43 1.55h0c-.26.4-.63.64-1.02.64H31.02v.02h0z" fill-rule="evenodd" fill="#f44336"/></svg>