<?xml version="1.0" encoding="utf-8"?><svg version="1.1" id="Layer_1" xmlns="http://www.w3.org/2000/svg" xmlns:xlink="http://www.w3.org/1999/xlink" x="0px" y="0px" viewBox="0 0 122.88 95.57" style="enable-background:new 0 0 122.88 95.57" xml:space="preserve"><style type="text/css"><![CDATA[
	.st0{fill-rule:evenodd;clip-rule:evenodd;fill:#f44336;}
]]></style><g><path class="st0" d="M5.73,0h111.43c1.58,0,3.01,0.64,4.05,1.68c1.04,1.04,1.68,2.47,1.68,4.05V77c0,1.58-0.64,3.01-1.68,4.05 c-1.04,1.04-2.47,1.68-4.05,1.68h-2.38l-5.01-9.66c0.28-0.85,0.47-1.69,0.6-2.52l0.08-0.53c0.56-0.63,1.11-1.36,1.63-2.21 c0.09-0.15,0.18-0.3,0.27-0.46c0.88-1.58,1.46-3.24,1.74-5.02c0.02-0.11,0.03-0.23,0.05-0.34l2.52-2.52V23.25L99.63,6.23H23.25 L6.23,23.25v36.22l17.02,17.02H60.5l-3.08,5.95c-0.05,0.09-0.1,0.19-0.15,0.28H5.73c-1.58,0-3.01-0.64-4.05-1.68 C0.64,80.01,0,78.58,0,77V5.73c0-1.58,0.64-3.01,1.68-4.05C2.72,0.64,4.15,0,5.73,0L5.73,0z M86.02,41.37 c0.54-0.03,1.02,0.06,1.47,0.21c0.44,0.15,0.84,0.38,1.26,0.63c0.42,0.27,0.86,0.63,1.32,1.04l0.03,0.03 c0.58,0.5,1.23,1.05,1.95,1.46c0.59,0.33,1.46,0.36,2.38,0.41c1.73,0.06,3.61,0.14,4.85,1.98l0,0c1.07,1.61,1.16,2.82,1.23,4.04 l0.02,0.13c0.03,0.59,0.1,1.14,0.31,1.74c0.21,0.62,0.57,1.28,1.17,2.09l0,0c1.13,1.49,1.8,2.75,2.06,3.91 c0.27,1.22,0.09,2.31-0.53,3.43l-0.02,0.03c-0.46,0.8-1.14,1.38-1.73,1.88c-0.44,0.38-0.83,0.71-0.95,0.98 c-0.32,0.74-0.33,1.41-0.33,2.12c-0.02,0.96-0.03,1.95-0.66,3.22l-0.01,0.03c-0.41,0.78-0.92,1.44-1.53,1.97 c-0.63,0.54-1.37,0.95-2.21,1.22c-0.75,0.24-1.44,0.2-2.12,0.15c-0.56-0.04-1.07-0.07-1.46,0.09l-0.05,0.01 c-0.81,0.35-1.55,0.95-2.25,1.5c-0.78,0.63-1.52,1.22-2.36,1.49l0,0c-0.62,0.2-1.23,0.29-1.85,0.29c-0.62,0-1.23-0.09-1.85-0.29 l-0.03-0.01c-0.83-0.26-1.56-0.86-2.34-1.49c-0.71-0.57-1.46-1.17-2.29-1.52c-0.39-0.17-0.9-0.12-1.46-0.09 c-0.66,0.04-1.37,0.09-2.13-0.15l-0.04-0.02c-0.83-0.27-1.55-0.67-2.18-1.2c-0.62-0.54-1.14-1.2-1.53-2 c-0.63-1.26-0.64-2.25-0.66-3.21c-0.02-0.71-0.02-1.38-0.33-2.12l-0.01-0.01c-0.13-0.29-0.53-0.62-0.96-0.99 c-0.6-0.51-1.28-1.08-1.73-1.88l-0.03-0.05c-0.62-1.1-0.78-2.18-0.51-3.39c0.26-1.16,0.95-2.42,2.07-3.91 c0.62-0.8,0.96-1.47,1.17-2.09c0.21-0.6,0.29-1.17,0.32-1.76l0.02-0.12c0.07-1.22,0.17-2.46,1.23-4.04l0.03-0.03 c1.23-1.82,3.1-1.88,4.81-1.94c0.92-0.03,1.8-0.08,2.39-0.41l0.02-0.02c0.71-0.41,1.35-0.95,1.94-1.46 c0.47-0.41,0.9-0.78,1.35-1.05c0.41-0.27,0.83-0.48,1.26-0.63C85.01,41.43,85.49,41.36,86.02,41.37L86.02,41.37L86.02,41.37z M104.35,91.29l-4.52-0.81l-2.27,4.07c-0.01,0.03-0.03,0.06-0.06,0.08c-0.95,1.17-1.82,1.14-2.57,0.53c-0.81-0.66-1.35-2.07-1.7-3 L93.1,91.8l-4.79-9.05c-0.15-0.29-0.04-0.63,0.24-0.77c0.03-0.02,0.06-0.03,0.08-0.03c0.5-0.17,1.05-0.51,1.65-0.96 c0.63-0.47,1.29-1.05,1.97-1.65c0.12-0.11,0.27-0.17,0.44-0.15c1.29,0.03,2.55-0.08,3.68-0.45c1.11-0.38,2.13-1.04,3-2.15 c0.2-0.26,0.56-0.3,0.8-0.11c0.06,0.06,0.12,0.12,0.15,0.2l5.54,10.7l0.48,1.04c0.02,0.03,0.03,0.06,0.03,0.09 c0.22,0.8,0.27,1.49,0,2.01c-0.3,0.59-0.89,0.89-1.88,0.81C104.46,91.32,104.4,91.3,104.35,91.29L104.35,91.29L104.35,91.29z M72.24,90.48l-4.52,0.81c-0.04,0.01-0.09,0.01-0.15,0.01c-0.99,0.08-1.58-0.23-1.88-0.81c-0.27-0.51-0.23-1.2,0-2.01l0.03-0.09 l0.48-1.04l5.54-10.7c0.03-0.08,0.09-0.14,0.15-0.2c0.26-0.2,0.6-0.15,0.8,0.1c0.86,1.1,1.88,1.76,3.01,2.15 c1.14,0.39,2.39,0.48,3.68,0.45c0.15-0.01,0.3,0.03,0.44,0.15c0.68,0.6,1.34,1.19,1.97,1.65c0.6,0.45,1.16,0.8,1.65,0.96l0.07,0.03 c0.29,0.15,0.39,0.5,0.24,0.77l-4.79,9.04l-0.14,0.35c-0.34,0.93-0.88,2.34-1.7,3c-0.75,0.6-1.61,0.65-2.57-0.53 c-0.02-0.03-0.04-0.04-0.06-0.07L72.24,90.48L72.24,90.48L72.24,90.48z M93.02,52.4c-1.79-1.79-4.25-2.9-6.99-2.9 c-2.74,0-5.2,1.11-6.99,2.9c-1.79,1.79-2.9,4.25-2.9,6.99c0,2.73,1.11,5.2,2.9,6.99c1.79,1.79,4.25,2.9,6.99,2.9 c2.73,0,5.2-1.11,6.99-2.9c1.79-1.79,2.9-4.25,2.9-6.99C95.91,56.67,94.81,54.19,93.02,52.4L93.02,52.4L93.02,52.4z M31.02,51.16 c-0.4,0-0.76-0.25-1.02-0.64c-0.26-0.4-0.43-0.95-0.43-1.56c0-0.61,0.16-1.16,0.43-1.56c0.26-0.4,0.63-0.64,1.02-0.64h17.1 c0.4,0,0.76,0.25,1.02,0.64c0.26,0.4,0.42,0.95,0.42,1.56c0,0.61-0.16,1.17-0.42,1.56c-0.26,0.4-0.63,0.64-1.02,0.64H31.02 L31.02,51.16L31.02,51.16z M29.94,64.84c4.22-5.54,7.83-3.02,12.87,0.5c0.25,0.18,0.51,0.35,0.76,0.53 c0.72,0.5,1.48,0.41,2.24,0.04c0.82-0.41,1.65-1.14,2.47-1.87l0.02-0.01c0.74-0.65,1.46-1.29,2.24-1.78 c0.13-0.08,0.31-0.04,0.39,0.09l1.15,1.81c0.08,0.13,0.04,0.31-0.09,0.39c-0.6,0.38-1.25,0.96-1.91,1.54l-0.02,0.01 c-1.15,1.02-2.33,2.05-3.63,2.59c-1.34,0.55-2.79,0.55-4.4-0.57l-0.77-0.54c-1.94-1.36-3.6-2.51-5.1-2.88 c-1.43-0.34-2.74,0.07-4.06,1.8c-0.1,0.13-0.28,0.15-0.4,0.05L30,65.25C29.87,65.15,29.84,64.97,29.94,64.84L29.94,64.84 L29.94,64.84z M31.02,22.83c-0.4,0-0.77-0.25-1.03-0.64s-0.43-0.95-0.43-1.55c0-0.61,0.16-1.15,0.43-1.55 c0.26-0.4,0.63-0.64,1.03-0.64h41.35c0.4,0,0.77,0.25,1.03,0.64c0.26,0.4,0.42,0.95,0.42,1.55c0,0.61-0.16,1.15-0.42,1.55 c-0.26,0.4-0.63,0.65-1.03,0.65L31.02,22.83L31.02,22.83L31.02,22.83z M31.02,37.72c-0.4,0-0.76-0.25-1.02-0.65l0,0 c-0.26-0.4-0.43-0.95-0.43-1.55c0-0.61,0.16-1.15,0.43-1.56c0.26-0.4,0.63-0.64,1.03-0.64h33.05c0.4,0,0.76,0.25,1.02,0.64l0,0 c0.26,0.4,0.43,0.95,0.43,1.55c0,0.61-0.16,1.15-0.43,1.55l0,0c-0.26,0.4-0.63,0.64-1.02,0.64H31.02V37.72L31.02,37.72z"/></g></svg>