<svg xmlns="http://www.w3.org/2000/svg" viewBox="0 0 30 30" fill="#3f3f3f"><path d="M29.1 6.7H16.9V2c0-.3-.1-.5-.3-.7-.3-.2-.6-.2-.8-.2L.8 3.9c-.5.1-.8.5-.8.9v20.5c0 .4.3.8.8.9l15 2.8h.2c.2 0 .4-.1.6-.2.2-.2.3-.4.3-.7v-4.7h12.2c.5 0 .9-.4.9-.9V7.6c0-.5-.4-.9-.9-.9zM8.4 21.5c-2.6 0-4.7-2.5-4.7-5.6s2.1-5.6 4.7-5.6 4.7 2.5 4.7 5.6-2.1 5.6-4.7 5.6zm8.5-12.9h9.4l-5.8 4.5-3.7-2.3.1-2.2zm11.2 12.9H16.9v-8.7l3.2 2.1a.9.9 0 0 0 .5.1c.2 0 .4-.1.6-.2l6.9-5.4v12.1z"/><ellipse cx="8.4" cy="15.9" rx="2.8" ry="3.7"/></svg>