<svg xmlns="http://www.w3.org/2000/svg" viewBox="0 0 30.03 30.05"><path d="M29.74 13.21a.81.81 0 0 0 0-.22v-.23a13.28 13.28 0 0 0-1.47-4h0l-.13-.24-.14-.24-.1-.18-.2-.1-.1-.15-.3-.44-.16-.22a.54.54 0 0 1-.14-.27l-.17-.22-.17-.21-.15-.18h0l-.16-.18-.18-.2.1.1 1 1.19A11.56 11.56 0 0 0 24 3.88h0l-.72-.47a10.58 10.58 0 0 0-3.57-1.57h0A10.78 10.78 0 0 0 17 1.07a14.11 14.11 0 0 0-4 0 1.79 1.79 0 0 1 .39-.48h0a5 5 0 0 0-1.85.81A3.61 3.61 0 0 1 12.89 0h0a6.36 6.36 0 0 0-4.4 2.34A13.67 13.67 0 0 0 0 15a12.93 12.93 0 0 0 5.85 11.16 7.46 7.46 0 0 0 1 .55 5.16 5.16 0 0 0 1 .35h0a21.4 21.4 0 0 1-1.56-4 5.86 5.86 0 0 0 3.46 2c.14 0-.49-.71-1.18-1.75l10.67 3.61a14 14 0 0 1-4 2.83s3.93-.32 5.88-2.56a6.54 6.54 0 0 1-3 2.86 14.43 14.43 0 0 0 8.49-4.91 13.87 13.87 0 0 0 3.13-11.93zM13 5.69v.06h0zm-5.24 5.93a30.54 30.54 0 0 0 3-1.72 4.86 4.86 0 0 1 2.61-.3A55 55 0 0 0 20 10.73a14.11 14.11 0 0 1 .72 3h0v.7L9.91 18.31l-3.82-5.52a5 5 0 0 1 1.67-1.17zm-2.19-4zm0 .43a6.85 6.85 0 0 0 .13.79 4.58 4.58 0 0 1 0 1.73 2.4 2.4 0 0 0-.35 1v.19L3.84 9.52A6.3 6.3 0 0 1 5.61 8zm16.32 13.73a10.14 10.14 0 0 1-2.37 4.78L8.23 22.74l-6-2h0a13.72 13.72 0 0 1-.6-5.4v-.2a2.43 2.43 0 0 0 1.79 1.07c-1.32-3-.8-5 .19-6.39L6.4 14a45.22 45.22 0 0 0 3.44 4.8h0l8.65-3.05 2.18-.75a8.36 8.36 0 0 1-.67 4 6.25 6.25 0 0 0 1.94-1.4A8.06 8.06 0 0 1 20 22.51a11.71 11.71 0 0 0 1.89-.73zm-.27-19.11l.38.15zm.38.15l.38.17zm.83.4l.35.2zm.77.47l.15.1h.06zm.61.43L24 4l-.09-.06a1.09 1.09 0 0 1 .17.13l.12.08h.07l.09.08zm.3.24l.15.12.07.06zm.41.34zm.81.77l-.17-.17-.18-.18.09.09h0l.08.08a.47.47 0 0 1 .1.1l.09.09z" fill="#3f3f3f"/><path d="M8 9.47a.93.93 0 0 1 .21-1.17.68.68 0 0 1 .79-.07c.23.22.09.69-.11 1a.85.85 0 0 1-.89.24z" fill="#fff"/></svg>