<svg id="Layer_1" data-name="Layer 1" xmlns="http://www.w3.org/2000/svg" viewBox="0 0 30.03 30.05"><defs><style>.cls-1{fill:#3f3f3f;}.cls-2{fill:#fff;}</style></defs><path class="cls-1" d="M29.74,13.21a.81.81,0,0,0,0-.22v-.23a13.28,13.28,0,0,0-1.47-4h0l-.13-.24L28,8.28l-.1-.18L27.7,8l-.1-.15c-.1-.15-.19-.29-.3-.44s-.1-.15-.16-.22A.54.54,0,0,1,27,6.92l-.17-.22-.17-.21-.15-.18h0l-.16-.18-.18-.2.1.1c.35.38.69.78,1,1.19A11.56,11.56,0,0,0,24,3.88h0c-.24-.17-.49-.33-.72-.47a10.58,10.58,0,0,0-3.57-1.57h0A10.78,10.78,0,0,0,17,1.07a14.11,14.11,0,0,0-4,0,1.79,1.79,0,0,1,.39-.48h0a5,5,0,0,0-1.85.81A3.61,3.61,0,0,1,12.89,0h0a6.36,6.36,0,0,0-4.4,2.34A13.67,13.67,0,0,0,0,15,12.93,12.93,0,0,0,5.85,26.16a7.46,7.46,0,0,0,1,.55,5.16,5.16,0,0,0,1,.35h0a21.4,21.4,0,0,1-1.56-4,5.86,5.86,0,0,0,3.46,2c.14,0-.49-.71-1.18-1.75l10.67,3.61a14,14,0,0,1-4,2.83s3.93-.32,5.88-2.56a6.54,6.54,0,0,1-3,2.86,14.43,14.43,0,0,0,8.49-4.91A13.87,13.87,0,0,0,29.74,13.21ZM13,5.69v.06h0ZM7.76,11.62a30.54,30.54,0,0,0,3-1.72,4.86,4.86,0,0,1,2.61-.3A55,55,0,0,0,20,10.73a14.11,14.11,0,0,1,.72,3h0v.7L9.91,18.31,6.09,12.79A5,5,0,0,1,7.76,11.62Zm-2.19-4Zm0,.43a6.85,6.85,0,0,0,.13.79,4.58,4.58,0,0,1,0,1.73,2.4,2.4,0,0,0-.35,1v.19L3.84,9.52A6.3,6.3,0,0,1,5.61,8ZM21.89,21.78a10.14,10.14,0,0,1-2.37,4.78L8.23,22.74l-6-2h0a13.72,13.72,0,0,1-.6-5.4v-.2a2.43,2.43,0,0,0,1.79,1.07c-1.32-3-.8-5,.19-6.39L6.4,14A45.22,45.22,0,0,0,9.84,18.8h0c1.44-.52,5.23-1.85,8.65-3.05L20.67,15A8.36,8.36,0,0,1,20,19a6.25,6.25,0,0,0,1.94-1.4A8.06,8.06,0,0,1,20,22.51,11.71,11.71,0,0,0,21.89,21.78ZM21.62,2.67l.38.15Zm.38.15.38.17Zm.83.4.35.2Zm.77.47.15.1h.06Zm.61.43L24,4l-.09-.06a1.09,1.09,0,0,1,.17.13l.12.08h.07l.09.08Zm.3.24.15.12.07.06Zm.41.34Zm.81.77-.17-.17-.18-.18.09.09h0l.08.08a.47.47,0,0,1,.1.1l.09.09Z" transform="translate(0)"/><path class="cls-2" d="M8,9.47A.93.93,0,0,1,8.21,8.3.68.68,0,0,1,9,8.23c.23.22.09.69-.11,1A.85.85,0,0,1,8,9.47Z" transform="translate(0)"/></svg>