<svg xmlns="http://www.w3.org/2000/svg" xmlns:xlink="http://www.w3.org/1999/xlink" viewBox="0 0 55.2 38.4"><path d="M3.03 0h49.13c1.67 0 3.03 1.36 3.03 3.03v32.33c0 1.67-1.36 3.03-3.03 3.03H3.03A3.02 3.02 0 0 1 0 35.37V3.03C0 1.36 1.36 0 3.03 0h0z" fill="#b22234"/><path d="M.02 2.73h55.17l.02.31v2.94H0V3.03c0-.1.01-.2.02-.3h0zM55.2 8.67v3.24H0V8.67h55.2 0zm0 5.94v3.24H0v-3.24h55.2 0zm0 5.94v3.24H0v-3.24h55.2 0zm0 5.94v3.24H0v-3.24h55.2 0zm0 5.94v2.93c0 .1-.01.21-.02.31H.02l-.02-.3v-2.93h55.2v-.01z" fill="#fff"/><path d="M20.8 0v20.68H0V3.03C0 1.36 1.36 0 3.03 0H20.8h0 0z" fill="#3c3b6e"/><g fill="#fff"><path d="M1.23 2.86l.69 2.15L.1 3.68h2.26L.53 5.01l.7-2.15zm0 4.16l.69 2.15L.1 7.84h2.26L.53 9.17l.7-2.15zm0 4.16l.69 2.15L.1 12h2.26L.53 13.33l.7-2.15zm0 4.16l.69 2.15L.1 16.16h2.26L.53 17.49l.7-2.15zM3.67.78l.7 2.15L2.54 1.6h2.27L2.97 2.93l.7-2.15zm0 4.16l.7 2.15-1.83-1.33h2.27L2.97 7.09l.7-2.15zm0 4.16l.7 2.15-1.83-1.33h2.27l-1.84 1.33.7-2.15zm0 4.16l.7 2.15-1.83-1.33h2.27l-1.84 1.33.7-2.15z"/><path d="M3.67 17.42l.7 2.15-1.83-1.33h2.27l-1.84 1.33.7-2.15zM6.12 2.86l.7 2.15-1.83-1.33h2.26L5.42 5.01l.7-2.15zm0 4.16l.7 2.15-1.83-1.33h2.26L5.42 9.17l.7-2.15zm0 4.16l.7 2.15L4.99 12h2.26l-1.83 1.33.7-2.15z"/><use xlink:href="#A"/><path d="M8.57.78l.69 2.15L7.44 1.6H9.7L7.87 2.93l.7-2.15zm0 4.16l.69 2.15-1.82-1.33H9.7L7.87 7.09l.7-2.15zm0 4.16l.69 2.15-1.82-1.33H9.7l-1.83 1.33.7-2.15zm0 4.16l.69 2.15-1.82-1.33H9.7l-1.83 1.33.7-2.15zm0 4.16l.69 2.15-1.82-1.33H9.7l-1.83 1.33.7-2.15z"/><use xlink:href="#A" x="4.89" y="-12.48"/><use xlink:href="#A" x="4.89" y="-8.32"/><path d="M11.01 11.18l.7 2.15L9.88 12h2.26l-1.83 1.33.7-2.15z"/><use xlink:href="#A" x="4.89"/><use xlink:href="#A" x="7.34" y="-14.56"/><use xlink:href="#A" x="7.34" y="-10.4"/><use xlink:href="#A" x="7.34" y="-6.24"/><use xlink:href="#A" x="7.34" y="-2.08"/><use xlink:href="#A" x="7.34" y="2.08"/><path d="M15.9 2.86l.7 2.15-1.83-1.33h2.26l-1.82 1.33.69-2.15zm0 4.16l.7 2.15-1.83-1.33h2.26l-1.82 1.33.69-2.15zm0 4.16l.7 2.15L14.77 12h2.26l-1.82 1.33.69-2.15zm0 4.16l.7 2.15-1.83-1.33h2.26l-1.82 1.33.69-2.15z"/><use xlink:href="#A" x="12.23" y="-14.56"/><use xlink:href="#A" x="12.23" y="-10.4"/><use xlink:href="#A" x="12.23" y="-6.24"/><use xlink:href="#A" x="12.23" y="-2.08"/><use xlink:href="#A" x="12.23" y="2.08"/></g><defs><path id="A" d="M6.12 15.34l.7 2.15-1.83-1.33h2.26l-1.83 1.33.7-2.15z"/></defs></svg>